<svg width="28" height="42" viewBox="0 0 28 42" fill="none" xmlns="http://www.w3.org/2000/svg">
<path fill-rule="evenodd" clip-rule="evenodd" d="M8.22838 20.0065C10.6309 18.5966 12.3529 14.7805 12.3529 10.2941C12.3529 4.60883 9.58764 0 6.17647 0C2.7653 0 0 4.60883 0 10.2941C0 14.7805 1.72202 18.5966 4.12456 20.0065C4.11998 20.0626 4.11765 20.1193 4.11765 20.1765V39.9412C4.11765 41.0782 5.03941 42 6.17647 42C7.31353 42 8.23529 41.0782 8.23529 39.9412V20.1765C8.23529 20.1193 8.23296 20.0626 8.22838 20.0065ZM23.0519 20.0065C25.4544 18.5966 27.1765 14.7805 27.1765 10.2941C27.1765 6.34386 25.8414 2.91329 23.8824 1.18732V10.7059H22.2353V0.205919C21.8362 0.0708857 21.423 0 21 0C20.577 0 20.1638 0.0708858 19.7647 0.20592V10.7059H18.1176V1.18732C16.1586 2.91329 14.8235 6.34386 14.8235 10.2941C14.8235 14.7805 16.5456 18.5966 18.9481 20.0065C18.9435 20.0626 18.9412 20.1193 18.9412 20.1765V39.9412C18.9412 41.0782 19.8629 42 21 42C22.1371 42 23.0588 41.0782 23.0588 39.9412V20.1765C23.0588 20.1193 23.0565 20.0626 23.0519 20.0065Z" fill="#C4C4C4"/>
</svg>
