<svg width="20" height="20" viewBox="0 0 20 20" fill="none" xmlns="http://www.w3.org/2000/svg">
<circle cx="10" cy="10" r="10" fill="#EB5656"/>
<path fill-rule="evenodd" clip-rule="evenodd" d="M13.7873 13.8653C13.9762 14.0542 14.2824 14.0542 14.4713 13.8653C14.6602 13.6765 14.6602 13.3702 14.4713 13.1814L10.9375 9.64762L14.4713 6.11383C14.6602 5.92496 14.6602 5.61874 14.4713 5.42987C14.2825 5.241 13.9762 5.241 13.7874 5.42987L10.2536 8.96366L6.71979 5.42987C6.53092 5.241 6.2247 5.241 6.03583 5.42987C5.84696 5.61874 5.84696 5.92495 6.03583 6.11382L9.56963 9.64762L6.03587 13.1814C5.847 13.3702 5.847 13.6765 6.03587 13.8653C6.22474 14.0542 6.53095 14.0542 6.71982 13.8653L10.2536 10.3316L13.7873 13.8653Z" fill="white"/>
</svg>
